<svg xmlns="http://www.w3.org/2000/svg" viewBox="0 0 262 97" width="262" height="97">
  <ellipse cx="48.57" cy="48.5" rx="48.57" ry="48.5" fill="#FF8000"/>
  <ellipse cx="131" cy="48.5" rx="48.57" ry="48.5" fill="#00E054"/>
  <ellipse cx="213.43" cy="48.5" rx="48.57" ry="48.5" fill="#40BCF4"/>
  <path d="M89.79,74.18C85.12,66.73 82.43,57.93 82.43,48.5C82.43,39.07 85.12,30.27 89.79,22.82C94.45,30.27 97.15,39.07 97.15,48.5C97.15,57.93 94.45,66.73 89.79,74.18Z" fill="#556677"/>
  <path d="M172.21,22.82C176.88,30.27 179.57,39.07 179.57,48.5C179.57,57.93 176.88,66.73 172.21,74.18C167.55,66.73 164.85,57.93 164.85,48.5C164.85,39.07 167.55,30.27 172.21,22.82Z" fill="#556677"/>
</svg>
